<?xml version="1.0" encoding="UTF-8" standalone="no"?>
<svg
   width="1024"
   height="1024"
   viewBox="0 0 1024 1024"
   version="1.1"
   id="svg3"
   xmlns="http://www.w3.org/2000/svg"
   xmlns:svg="http://www.w3.org/2000/svg">
  <defs
     id="defs3" />
  <g
     id="g3">
    <path
       d="m 29.995938,1022.4059 c -16.644265,-1.7576 -22.7642617,-5.3437 -23.6132785,-13.8654 -0.5129476,-5.1486 1.3265887,-7.6695 18.5899285,-25.56505 38.559512,-39.96312 71.777293,-94.09352 89.270582,-145.38336 5.85467,-17.14988 5.85467,-17.2209 2.35248,-20.59406 -4.31584,-4.13656 -8.96774,-9.74667 -15.81294,-19.01399 -2.865431,-3.88801 -5.695487,-7.45646 -6.279185,-7.95357 C 93.14156,788.8765 66.362156,747.79492 61.940193,740.03664 57.270602,731.87003 39.10518,694.41015 35.249229,685.0008 21.470394,651.46446 9.0535248,603.44126 3.1811588,561.0104 -1.3823064,528.11318 -0.97548584,467.27196 4.0124877,433.18525 c 4.9172222,-33.60736 6.5445043,-42.37759 9.6575653,-51.73368 1.39734,-4.26084 4.333523,-14.13178 6.509129,-21.94332 2.157917,-7.81154 4.616528,-15.80061 5.447857,-17.75349 4.156644,-9.69341 14.044152,-35.45373 14.044152,-36.55445 0,-0.69239 6.438378,-13.42164 14.291783,-28.29907 14.627851,-27.69544 26.407959,-46.99349 41.141937,-67.41002 12.947509,-17.94877 14.167969,-19.49332 18.413049,-23.50562 2.19329,-2.07716 3.97976,-4.52714 3.97976,-5.46807 0,-2.05941 4.59885,-7.03039 28.61895,-30.92659 27.2216,-27.09183 32.88172,-32.41788 34.54437,-32.41788 0.81364,0 2.81237,-1.40253 4.42196,-3.10686 1.62729,-1.70433 5.04104,-4.70468 7.62347,-6.65756 2.56474,-1.95288 5.60705,-4.34961 6.75676,-5.32605 1.14971,-0.97644 6.06693,-4.544895 10.9134,-7.918058 4.86415,-3.373165 9.09155,-6.781835 9.40993,-7.545236 0.33607,-0.7634 1.45041,-1.402526 2.49399,-1.402526 1.04358,0 4.5104,-1.988391 7.69421,-4.438373 3.18382,-2.449982 6.19075,-4.438373 6.66832,-4.438373 1.20278,0 23.02959,-12.942297 24.12623,-14.309317 0.97283,-1.207237 16.96265,-8.841239 36.26009,-17.309656 C 365.83514,14.504604 435.24226,0 511.05238,0 c 42.91072,0 69.93775,2.94708 119.39298,13.031064 11.9393,2.432229 44.96252,12.09013 58.06921,16.990094 35.8179,13.368381 68.66423,28.139288 74.12978,33.305555 1.20277,1.136223 4.98797,3.00034 8.40172,4.136563 3.41377,1.11847 6.20844,2.645272 6.20844,3.373165 0,0.727893 3.69676,3.177875 8.20716,5.432569 4.51041,2.272447 9.69294,5.610104 11.4971,7.42096 1.80416,1.810856 4.42197,3.302149 5.80162,3.302149 1.37965,0 2.7593,0.60362 3.09538,1.36702 0.31838,0.745647 7.35814,6.462272 15.61837,12.729251 96.48722,72.98462 161.93225,170.09623 189.84376,281.71245 10.8426,43.37178 12.6821,59.70499 12.6821,113.40931 0,30.10993 -0.849,53.54454 -2.2817,63.0249 -15.6183,103.57389 -52.69213,185.93235 -118.15485,262.57418 -18.71375,21.90781 -50.42807,53.01194 -70.59221,69.22088 l -14.11491,11.36223 -1.48578,-7.81154 c -4.38658,-23.04403 -17.86472,-66.22053 -34.70356,-111.15462 l -12.77062,-34.12222 5.55398,-5.82314 c 13.14207,-13.77671 19.22669,-33.98019 15.83063,-52.47933 -2.08717,-11.30898 -11.10797,-27.76646 -19.0852,-34.85011 l -3.82057,-3.40867 13.60196,-12.56948 c 16.55583,-15.32126 23.5779,-25.79583 23.5779,-35.22293 0,-20.36326 -21.38461,-34.08671 -37.46287,-24.03823 -3.59063,2.23694 -13.26588,8.27313 -21.5261,13.42164 -37.58669,23.41686 -93.16191,40.67326 -159.45597,49.5145 -32.77559,4.36736 -118.11946,4.3496 -150.34672,-0.0355 -75.79243,-10.31478 -131.26153,-28.63639 -172.49191,-56.97096 -13.76114,-9.46261 -15.45917,-10.155 -22.65813,-9.35609 -21.33155,2.41447 -31.80276,25.423 -20.04033,44.04641 18.69605,29.57733 91.1278,66.38032 162.12682,82.35846 68.98262,15.53432 144.17366,18.28611 215.79177,7.91807 21.08392,-3.05361 47.1558,-8.27314 57.71545,-11.53978 2.28173,-0.69238 3.14844,0.81667 4.08589,7.11915 1.69803,11.32674 12.22231,31.47695 20.2349,38.75588 6.72138,6.08945 6.77444,6.23147 4.28047,12.14339 -4.61654,11.02492 -20.19953,62.4923 -27.0978,89.45985 -12.0808,47.36633 -14.27409,74.68895 -7.74728,96.66778 2.83007,9.49812 3.18382,9.17855 -16.06056,14.41584 -100.90918,27.51791 -209.68946,22.04983 -302.02003,-15.16149 l -19.81039,-7.98907 -4.49271,4.24308 c -13.61965,12.87128 -63.64089,40.81529 -96.87636,54.09491 -59.48423,23.77196 -126.432743,34.24646 -181.707272,28.38776 z M 339.42718,436.94899 c 12.02774,-5.3438 26.16032,-19.72413 32.12113,-32.66643 4.40427,-9.58688 5.07641,-13.17309 5.07641,-27.05632 0,-14.48686 -0.54832,-17.13212 -5.74855,-27.73096 -6.82751,-13.93649 -17.95317,-24.83714 -31.96195,-31.37042 -8.31328,-3.88802 -12.52299,-4.66918 -24.4446,-4.63366 -12.57606,0.0533 -15.84831,0.78115 -26.00114,5.78763 -26.83246,13.27962 -41.21269,43.74462 -34.15523,72.45202 5.99618,24.37554 23.59559,42.67939 46.66054,48.50254 9.746,2.46774 29.23802,0.79891 38.45339,-3.2844 z m 394.04991,0.17754 c 12.43455,-5.5391 26.4964,-19.75964 32.4572,-32.84397 4.33353,-9.49812 5.04103,-13.27961 5.0941,-27.05632 0.0353,-14.52236 -0.49526,-17.11437 -5.71317,-27.73096 -6.82752,-13.93649 -17.95317,-24.83714 -31.96195,-31.37042 -8.31329,-3.88802 -12.523,-4.66918 -24.44461,-4.63366 -12.57606,0.0533 -15.86599,0.78115 -25.96576,5.78763 -23.18877,11.451 -35.35801,31.61898 -35.53489,58.87059 -0.0708,12.65824 0.65445,16.68829 4.54578,25.06793 8.20716,17.71799 22.21594,30.42949 39.72691,36.0396 11.62092,3.72823 30.84761,2.73404 41.79639,-2.13042 z m -11.19641,540.27432 c -32.98784,-6.60429 -51.34783,-36.64321 -45.97073,-75.18604 2.81238,-20.22123 13.2482,-60.87674 25.84195,-100.64457 5.55399,-17.57595 10.43583,-33.14577 10.86034,-34.6193 0.5837,-2.09492 3.94439,-2.66303 15.91907,-2.66303 h 15.17617 l 8.66705,22.19187 c 13.88497,35.47148 24.3031,66.5756 30.81223,91.94534 10.24126,39.94536 7.78266,61.16078 -9.28612,80.22805 -14.80473,16.52849 -32.08576,22.75997 -52.01996,18.74768 z M 714.00276,732.7222 c -15.75987,-6.00068 -25.20518,-20.18572 -25.1698,-37.79719 0.0353,-12.49846 2.93618,-19.17377 8.66704,-20.00819 5.8193,-0.83441 7.25202,2.521 6.04924,14.06077 -1.68034,16.17344 5.14717,26.75452 19.27976,29.91464 12.62912,2.80505 24.42692,-5.27279 28.65432,-19.63537 4.08589,-13.91874 14.38022,-10.66984 12.96519,4.10106 -1.64497,17.18538 -15.97213,30.2342 -34.0668,31.06862 -5.83699,0.2663 -13.21282,-0.49711 -16.37895,-1.70434 z"
       fill="#fafafc"
       id="path3"
       style="display:inline;fill:#ffffff;stroke-width:1.77206" />
  </g>
</svg>
